<svg xmlns="http://www.w3.org/2000/svg" xmlns:xlink="http://www.w3.org/1999/xlink" width="200" zoomAndPan="magnify" viewBox="0 0 150 37.5" height="50" preserveAspectRatio="xMidYMid meet" version="1.0"><defs><g/></defs><g fill="#000000" fill-opacity="1"><g transform="translate(56.228855, 31.147234)"><g><path d="M 2.847656 0.0664062 C 3.59375 0.0664062 4.222656 -0.121094 4.535156 -0.292969 L 4.644531 -1.15625 L 4.570312 -1.164062 C 4.3125 -0.445312 3.753906 -0.0664062 3.035156 -0.0664062 C 1.652344 -0.0664062 0.898438 -1.261719 0.902344 -2.511719 C 0.902344 -3.867188 1.71875 -4.570312 2.777344 -4.570312 C 3.566406 -4.570312 4.199219 -4.164062 4.457031 -3.558594 L 4.523438 -3.574219 L 4.496094 -4.363281 C 4.238281 -4.53125 3.574219 -4.695312 3.003906 -4.695312 C 1.441406 -4.695312 0.34375 -3.648438 0.34375 -2.230469 C 0.34375 -0.785156 1.320312 0.0664062 2.847656 0.0664062 Z M 2.847656 0.0664062 "/></g></g></g><g fill="#000000" fill-opacity="1"><g transform="translate(61.017814, 31.147234)"><g><path d="M 2.78125 0 L 3.359375 0 L 3.359375 -0.0859375 C 3.15625 -0.144531 3.09375 -0.300781 3.09375 -0.84375 L 3.09375 -2.171875 C 3.09375 -2.921875 2.722656 -3.367188 1.917969 -3.367188 C 1.339844 -3.367188 0.855469 -3.082031 0.476562 -2.609375 L 0.539062 -2.558594 C 0.871094 -2.960938 1.253906 -3.148438 1.652344 -3.148438 C 2.21875 -3.148438 2.550781 -2.847656 2.582031 -2.207031 L 1.71875 -1.972656 C 0.929688 -1.753906 0.234375 -1.496094 0.234375 -0.804688 C 0.234375 -0.234375 0.671875 0.0664062 1.164062 0.0664062 C 1.820312 0.0664062 2.378906 -0.578125 2.582031 -1.394531 L 2.582031 -0.199219 C 2.582031 -0.0742188 2.648438 0 2.78125 0 Z M 0.730469 -0.988281 C 0.722656 -1.535156 1.253906 -1.753906 1.746094 -1.894531 L 2.582031 -2.117188 L 2.582031 -1.917969 C 2.578125 -1.222656 2.117188 -0.324219 1.40625 -0.324219 C 1.03125 -0.324219 0.730469 -0.558594 0.730469 -0.988281 Z M 0.730469 -0.988281 "/></g></g></g><g fill="#000000" fill-opacity="1"><g transform="translate(64.405288, 31.147234)"><g><path d="M 2.011719 0.0585938 C 3.113281 0.0546875 3.726562 -0.816406 3.726562 -1.746094 C 3.726562 -2.730469 3.148438 -3.367188 2.378906 -3.367188 C 1.867188 -3.367188 1.40625 -3.109375 1.050781 -2.84375 L 1.050781 -3.328125 L 0.988281 -3.375 L 0.265625 -3.054688 L 0.265625 -2.980469 C 0.445312 -2.902344 0.53125 -2.835938 0.53125 -2.371094 L 0.53125 0.949219 C 0.53125 1.496094 0.464844 1.648438 0.265625 1.707031 L 0.265625 1.792969 L 1.316406 1.792969 L 1.316406 1.707031 C 1.109375 1.648438 1.050781 1.496094 1.050781 0.949219 L 1.050781 -0.234375 C 1.300781 -0.0664062 1.648438 0.0585938 2.011719 0.0585938 Z M 1.050781 -1.097656 L 1.050781 -2.738281 C 1.328125 -2.949219 1.640625 -3.140625 2.027344 -3.140625 C 2.957031 -3.140625 3.246094 -2.097656 3.246094 -1.363281 C 3.246094 -0.589844 2.921875 -0.0664062 2.226562 -0.0664062 C 1.628906 -0.0664062 1.050781 -0.644531 1.050781 -1.097656 Z M 1.050781 -1.097656 "/></g></g></g><g fill="#000000" fill-opacity="1"><g transform="translate(68.284279, 31.147234)"><g><path d="M 1.253906 0.0664062 C 1.648438 0.0664062 1.984375 -0.21875 2.273438 -0.542969 L 2.210938 -0.605469 C 1.992188 -0.34375 1.761719 -0.257812 1.574219 -0.257812 C 1.289062 -0.257812 1.101562 -0.433594 1.101562 -0.882812 L 1.101562 -3.226562 L 2.078125 -3.226562 L 2.113281 -3.320312 L 1.101562 -3.320312 L 1.101562 -4.136719 L 1.007812 -4.136719 L 0.160156 -3.320312 L 0.160156 -3.226562 L 0.585938 -3.226562 L 0.585938 -0.882812 C 0.585938 -0.191406 0.835938 0.0664062 1.253906 0.0664062 Z M 1.253906 0.0664062 "/></g></g></g><g fill="#000000" fill-opacity="1"><g transform="translate(70.436322, 31.147234)"><g><path d="M 1.449219 0.0664062 C 1.945312 0.0664062 2.40625 -0.253906 2.742188 -0.605469 L 2.742188 -0.265625 C 2.742188 -0.0742188 2.816406 0 2.960938 0 L 3.527344 0 L 3.527344 -0.0859375 C 3.320312 -0.144531 3.261719 -0.300781 3.261719 -0.84375 L 3.261719 -3.328125 L 3.203125 -3.375 L 2.476562 -3.054688 L 2.476562 -2.980469 C 2.65625 -2.902344 2.742188 -2.835938 2.742188 -2.371094 L 2.742188 -0.730469 C 2.445312 -0.410156 2.085938 -0.167969 1.695312 -0.167969 C 1.164062 -0.167969 0.949219 -0.503906 0.949219 -1.261719 L 0.949219 -3.328125 L 0.890625 -3.375 L 0.167969 -3.054688 L 0.167969 -2.980469 C 0.34375 -2.902344 0.433594 -2.835938 0.433594 -2.371094 L 0.433594 -1.140625 C 0.433594 -0.378906 0.75 0.0664062 1.449219 0.0664062 Z M 1.449219 0.0664062 "/></g></g></g><g fill="#000000" fill-opacity="1"><g transform="translate(74.062913, 31.147234)"><g><path d="M 0.210938 0 L 1.261719 0 L 1.261719 -0.0859375 C 1.054688 -0.144531 0.996094 -0.300781 0.996094 -0.84375 L 0.996094 -2.164062 L 1.003906 -2.164062 C 1.023438 -2.484375 1.261719 -2.855469 1.453125 -2.996094 C 1.847656 -2.882812 2.105469 -2.808594 2.285156 -2.808594 C 2.523438 -2.808594 2.671875 -3.042969 2.671875 -3.1875 C 2.671875 -3.300781 2.503906 -3.367188 2.238281 -3.367188 C 1.917969 -3.367188 1.6875 -3.28125 1.480469 -3.128906 C 1.28125 -2.980469 1.101562 -2.757812 0.996094 -2.496094 L 0.996094 -3.328125 L 0.9375 -3.375 L 0.210938 -3.054688 L 0.210938 -2.980469 C 0.390625 -2.902344 0.476562 -2.835938 0.476562 -2.371094 L 0.476562 -0.84375 C 0.476562 -0.300781 0.417969 -0.144531 0.210938 -0.0859375 Z M 0.210938 0 "/></g></g></g><g fill="#000000" fill-opacity="1"><g transform="translate(76.719755, 31.147234)"><g><path d="M 1.8125 0.0664062 C 2.523438 0.0664062 3.042969 -0.40625 3.378906 -0.871094 L 3.320312 -0.929688 C 3.015625 -0.585938 2.648438 -0.351562 2.140625 -0.351562 C 1.273438 -0.351562 0.710938 -0.976562 0.710938 -1.886719 C 0.710938 -1.992188 0.71875 -2.09375 0.730469 -2.191406 L 3.328125 -2.191406 C 3.308594 -2.824219 2.824219 -3.367188 1.984375 -3.367188 C 1.054688 -3.367188 0.238281 -2.644531 0.238281 -1.5625 C 0.238281 -0.464844 1.082031 0.0664062 1.8125 0.0664062 Z M 0.75 -2.277344 C 0.855469 -2.835938 1.203125 -3.253906 1.765625 -3.246094 C 2.371094 -3.246094 2.730469 -2.722656 2.796875 -2.277344 Z M 0.75 -2.277344 "/></g></g></g><g fill="#000000" fill-opacity="1"><g transform="translate(80.153724, 31.147234)"><g/></g></g><g fill="#000000" fill-opacity="1"><g transform="translate(81.415724, 31.147234)"><g><path d="M 1.253906 0.0664062 C 1.648438 0.0664062 1.984375 -0.21875 2.273438 -0.542969 L 2.210938 -0.605469 C 1.992188 -0.34375 1.761719 -0.257812 1.574219 -0.257812 C 1.289062 -0.257812 1.101562 -0.433594 1.101562 -0.882812 L 1.101562 -3.226562 L 2.078125 -3.226562 L 2.113281 -3.320312 L 1.101562 -3.320312 L 1.101562 -4.136719 L 1.007812 -4.136719 L 0.160156 -3.320312 L 0.160156 -3.226562 L 0.585938 -3.226562 L 0.585938 -0.882812 C 0.585938 -0.191406 0.835938 0.0664062 1.253906 0.0664062 Z M 1.253906 0.0664062 "/></g></g></g><g fill="#000000" fill-opacity="1"><g transform="translate(83.567767, 31.147234)"><g><path d="M 0.179688 0 L 1.230469 0 L 1.230469 -0.0859375 C 1.023438 -0.144531 0.964844 -0.300781 0.964844 -0.84375 L 0.964844 -2.648438 C 1.300781 -2.929688 1.660156 -3.148438 2.027344 -3.148438 C 2.609375 -3.148438 2.902344 -2.769531 2.902344 -2.078125 L 2.902344 -0.84375 C 2.902344 -0.300781 2.84375 -0.144531 2.636719 -0.0859375 L 2.636719 0 L 3.6875 0 L 3.6875 -0.0859375 C 3.480469 -0.144531 3.421875 -0.300781 3.421875 -0.84375 L 3.421875 -2.210938 C 3.421875 -2.988281 3.023438 -3.367188 2.371094 -3.367188 C 1.859375 -3.367188 1.347656 -3.070312 0.964844 -2.757812 L 0.964844 -5.320312 L 0.902344 -5.367188 L 0.179688 -5.046875 L 0.179688 -4.976562 C 0.359375 -4.894531 0.445312 -4.828125 0.445312 -4.363281 L 0.445312 -0.84375 C 0.445312 -0.300781 0.386719 -0.144531 0.179688 -0.0859375 Z M 0.179688 0 "/></g></g></g><g fill="#000000" fill-opacity="1"><g transform="translate(87.280703, 31.147234)"><g><path d="M 1.8125 0.0664062 C 2.523438 0.0664062 3.042969 -0.40625 3.378906 -0.871094 L 3.320312 -0.929688 C 3.015625 -0.585938 2.648438 -0.351562 2.140625 -0.351562 C 1.273438 -0.351562 0.710938 -0.976562 0.710938 -1.886719 C 0.710938 -1.992188 0.71875 -2.09375 0.730469 -2.191406 L 3.328125 -2.191406 C 3.308594 -2.824219 2.824219 -3.367188 1.984375 -3.367188 C 1.054688 -3.367188 0.238281 -2.644531 0.238281 -1.5625 C 0.238281 -0.464844 1.082031 0.0664062 1.8125 0.0664062 Z M 0.75 -2.277344 C 0.855469 -2.835938 1.203125 -3.253906 1.765625 -3.246094 C 2.371094 -3.246094 2.730469 -2.722656 2.796875 -2.277344 Z M 0.75 -2.277344 "/></g></g></g><g fill="#000000" fill-opacity="1"><g transform="translate(90.714672, 31.147234)"><g><path d="M 0.210938 0 L 1.261719 0 L 1.261719 -0.0859375 C 1.054688 -0.144531 0.996094 -0.300781 0.996094 -0.84375 L 0.996094 -2.671875 C 1.355469 -2.941406 1.699219 -3.148438 2.078125 -3.148438 C 2.589844 -3.148438 2.835938 -2.804688 2.835938 -2.144531 L 2.835938 -0.84375 C 2.835938 -0.300781 2.769531 -0.144531 2.570312 -0.0859375 L 2.570312 0 L 3.621094 0 L 3.621094 -0.0859375 C 3.414062 -0.144531 3.355469 -0.300781 3.355469 -0.84375 L 3.355469 -2.265625 C 3.355469 -2.410156 3.339844 -2.542969 3.3125 -2.65625 C 3.679688 -2.941406 4.023438 -3.148438 4.402344 -3.148438 C 4.921875 -3.148438 5.160156 -2.804688 5.160156 -2.144531 L 5.160156 -0.84375 C 5.160156 -0.300781 5.101562 -0.144531 4.894531 -0.0859375 L 4.894531 0 L 5.945312 0 L 5.945312 -0.0859375 C 5.746094 -0.144531 5.679688 -0.300781 5.679688 -0.84375 L 5.679688 -2.265625 C 5.679688 -3.015625 5.347656 -3.367188 4.703125 -3.367188 C 4.203125 -3.367188 3.691406 -3.0625 3.292969 -2.742188 C 3.175781 -3.167969 2.863281 -3.367188 2.371094 -3.367188 C 1.894531 -3.367188 1.394531 -3.082031 0.996094 -2.761719 L 0.996094 -3.328125 L 0.9375 -3.375 L 0.210938 -3.054688 L 0.210938 -2.980469 C 0.390625 -2.902344 0.476562 -2.835938 0.476562 -2.371094 L 0.476562 -0.84375 C 0.476562 -0.300781 0.417969 -0.144531 0.210938 -0.0859375 Z M 0.210938 0 "/></g></g></g><g fill="#000000" fill-opacity="1"><g transform="translate(96.666, 31.147234)"><g/></g></g><g fill="#000000" fill-opacity="1"><g transform="translate(97.928, 31.147234)"><g><path d="M 1.253906 0.0664062 C 1.648438 0.0664062 1.984375 -0.21875 2.273438 -0.542969 L 2.210938 -0.605469 C 1.992188 -0.34375 1.761719 -0.257812 1.574219 -0.257812 C 1.289062 -0.257812 1.101562 -0.433594 1.101562 -0.882812 L 1.101562 -3.226562 L 2.078125 -3.226562 L 2.113281 -3.320312 L 1.101562 -3.320312 L 1.101562 -4.136719 L 1.007812 -4.136719 L 0.160156 -3.320312 L 0.160156 -3.226562 L 0.585938 -3.226562 L 0.585938 -0.882812 C 0.585938 -0.191406 0.835938 0.0664062 1.253906 0.0664062 Z M 1.253906 0.0664062 "/></g></g></g><g fill="#000000" fill-opacity="1"><g transform="translate(100.080043, 31.147234)"><g><path d="M 1.980469 0.0664062 C 2.761719 0.0664062 3.714844 -0.542969 3.714844 -1.679688 C 3.714844 -2.863281 2.804688 -3.367188 1.980469 -3.367188 C 1.070312 -3.367188 0.238281 -2.648438 0.238281 -1.613281 C 0.238281 -0.457031 1.136719 0.0664062 1.980469 0.0664062 Z M 0.75 -1.992188 C 0.75 -2.65625 1.054688 -3.214844 1.734375 -3.242188 C 2.605469 -3.289062 3.207031 -2.144531 3.207031 -1.289062 C 3.207031 -0.644531 2.890625 -0.0742188 2.179688 -0.0742188 C 1.296875 -0.0742188 0.75 -1.148438 0.75 -1.992188 Z M 0.75 -1.992188 "/></g></g></g><g fill="#000000" fill-opacity="1"><g transform="translate(103.945748, 31.147234)"><g><path d="M 1.183594 1.839844 C 2.277344 1.839844 3.453125 0.964844 3.453125 0.207031 C 3.453125 -0.3125 3.0625 -0.40625 2.390625 -0.445312 L 1.554688 -0.5 C 1.050781 -0.523438 0.832031 -0.632812 0.824219 -0.808594 C 0.824219 -0.9375 0.917969 -1.003906 1.0625 -1.101562 C 1.269531 -1.015625 1.5 -0.976562 1.707031 -0.976562 C 2.25 -0.976562 3.015625 -1.460938 3.015625 -2.226562 C 3.015625 -2.796875 2.683594 -3.121094 2.277344 -3.269531 C 2.34375 -3.359375 2.417969 -3.441406 2.492188 -3.492188 C 2.789062 -3.402344 2.980469 -3.339844 3.148438 -3.339844 C 3.386719 -3.339844 3.527344 -3.566406 3.527344 -3.679688 C 3.527344 -3.78125 3.386719 -3.839844 3.179688 -3.839844 C 2.863281 -3.839844 2.625 -3.71875 2.425781 -3.539062 C 2.339844 -3.472656 2.257812 -3.386719 2.191406 -3.300781 C 2.039062 -3.347656 1.867188 -3.367188 1.707031 -3.367188 C 1.023438 -3.367188 0.390625 -2.808594 0.390625 -2.113281 C 0.390625 -1.621094 0.644531 -1.316406 0.976562 -1.140625 C 0.710938 -0.96875 0.492188 -0.804688 0.492188 -0.558594 C 0.492188 -0.273438 0.675781 -0.132812 0.976562 -0.0585938 C 0.4375 0.265625 0.101562 0.605469 0.101562 1.023438 C 0.101562 1.621094 0.675781 1.839844 1.183594 1.839844 Z M 0.542969 0.777344 C 0.542969 0.492188 0.691406 0.21875 1.074219 -0.0390625 C 1.195312 -0.0195312 1.320312 -0.0078125 1.453125 0 L 2.382812 0.046875 C 2.9375 0.078125 3.195312 0.171875 3.195312 0.484375 C 3.195312 1.007812 2.410156 1.539062 1.5625 1.539062 C 0.941406 1.539062 0.542969 1.253906 0.542969 0.777344 Z M 0.875 -2.40625 C 0.875 -2.871094 1.074219 -3.246094 1.546875 -3.269531 C 2.152344 -3.300781 2.539062 -2.523438 2.539062 -1.925781 C 2.539062 -1.472656 2.324219 -1.082031 1.832031 -1.082031 C 1.222656 -1.082031 0.875 -1.828125 0.875 -2.40625 Z M 0.875 -2.40625 "/></g></g></g><g fill="#000000" fill-opacity="1"><g transform="translate(107.28673, 31.147234)"><g><path d="M 1.8125 0.0664062 C 2.523438 0.0664062 3.042969 -0.40625 3.378906 -0.871094 L 3.320312 -0.929688 C 3.015625 -0.585938 2.648438 -0.351562 2.140625 -0.351562 C 1.273438 -0.351562 0.710938 -0.976562 0.710938 -1.886719 C 0.710938 -1.992188 0.71875 -2.09375 0.730469 -2.191406 L 3.328125 -2.191406 C 3.308594 -2.824219 2.824219 -3.367188 1.984375 -3.367188 C 1.054688 -3.367188 0.238281 -2.644531 0.238281 -1.5625 C 0.238281 -0.464844 1.082031 0.0664062 1.8125 0.0664062 Z M 0.75 -2.277344 C 0.855469 -2.835938 1.203125 -3.253906 1.765625 -3.246094 C 2.371094 -3.246094 2.730469 -2.722656 2.796875 -2.277344 Z M 0.75 -2.277344 "/></g></g></g><g fill="#000000" fill-opacity="1"><g transform="translate(110.720701, 31.147234)"><g><path d="M 1.253906 0.0664062 C 1.648438 0.0664062 1.984375 -0.21875 2.273438 -0.542969 L 2.210938 -0.605469 C 1.992188 -0.34375 1.761719 -0.257812 1.574219 -0.257812 C 1.289062 -0.257812 1.101562 -0.433594 1.101562 -0.882812 L 1.101562 -3.226562 L 2.078125 -3.226562 L 2.113281 -3.320312 L 1.101562 -3.320312 L 1.101562 -4.136719 L 1.007812 -4.136719 L 0.160156 -3.320312 L 0.160156 -3.226562 L 0.585938 -3.226562 L 0.585938 -0.882812 C 0.585938 -0.191406 0.835938 0.0664062 1.253906 0.0664062 Z M 1.253906 0.0664062 "/></g></g></g><g fill="#000000" fill-opacity="1"><g transform="translate(112.872744, 31.147234)"><g><path d="M 0.179688 0 L 1.230469 0 L 1.230469 -0.0859375 C 1.023438 -0.144531 0.964844 -0.300781 0.964844 -0.84375 L 0.964844 -2.648438 C 1.300781 -2.929688 1.660156 -3.148438 2.027344 -3.148438 C 2.609375 -3.148438 2.902344 -2.769531 2.902344 -2.078125 L 2.902344 -0.84375 C 2.902344 -0.300781 2.84375 -0.144531 2.636719 -0.0859375 L 2.636719 0 L 3.6875 0 L 3.6875 -0.0859375 C 3.480469 -0.144531 3.421875 -0.300781 3.421875 -0.84375 L 3.421875 -2.210938 C 3.421875 -2.988281 3.023438 -3.367188 2.371094 -3.367188 C 1.859375 -3.367188 1.347656 -3.070312 0.964844 -2.757812 L 0.964844 -5.320312 L 0.902344 -5.367188 L 0.179688 -5.046875 L 0.179688 -4.976562 C 0.359375 -4.894531 0.445312 -4.828125 0.445312 -4.363281 L 0.445312 -0.84375 C 0.445312 -0.300781 0.386719 -0.144531 0.179688 -0.0859375 Z M 0.179688 0 "/></g></g></g><g fill="#000000" fill-opacity="1"><g transform="translate(116.585683, 31.147234)"><g><path d="M 1.8125 0.0664062 C 2.523438 0.0664062 3.042969 -0.40625 3.378906 -0.871094 L 3.320312 -0.929688 C 3.015625 -0.585938 2.648438 -0.351562 2.140625 -0.351562 C 1.273438 -0.351562 0.710938 -0.976562 0.710938 -1.886719 C 0.710938 -1.992188 0.71875 -2.09375 0.730469 -2.191406 L 3.328125 -2.191406 C 3.308594 -2.824219 2.824219 -3.367188 1.984375 -3.367188 C 1.054688 -3.367188 0.238281 -2.644531 0.238281 -1.5625 C 0.238281 -0.464844 1.082031 0.0664062 1.8125 0.0664062 Z M 0.75 -2.277344 C 0.855469 -2.835938 1.203125 -3.253906 1.765625 -3.246094 C 2.371094 -3.246094 2.730469 -2.722656 2.796875 -2.277344 Z M 0.75 -2.277344 "/></g></g></g><g fill="#000000" fill-opacity="1"><g transform="translate(120.019654, 31.147234)"><g><path d="M 0.210938 0 L 1.261719 0 L 1.261719 -0.0859375 C 1.054688 -0.144531 0.996094 -0.300781 0.996094 -0.84375 L 0.996094 -2.164062 L 1.003906 -2.164062 C 1.023438 -2.484375 1.261719 -2.855469 1.453125 -2.996094 C 1.847656 -2.882812 2.105469 -2.808594 2.285156 -2.808594 C 2.523438 -2.808594 2.671875 -3.042969 2.671875 -3.1875 C 2.671875 -3.300781 2.503906 -3.367188 2.238281 -3.367188 C 1.917969 -3.367188 1.6875 -3.28125 1.480469 -3.128906 C 1.28125 -2.980469 1.101562 -2.757812 0.996094 -2.496094 L 0.996094 -3.328125 L 0.9375 -3.375 L 0.210938 -3.054688 L 0.210938 -2.980469 C 0.390625 -2.902344 0.476562 -2.835938 0.476562 -2.371094 L 0.476562 -0.84375 C 0.476562 -0.300781 0.417969 -0.144531 0.210938 -0.0859375 Z M 0.210938 0 "/></g></g></g><g fill="#000000" fill-opacity="1"><g transform="translate(5.472553, 23.764481)"><g><path d="M 1.957031 0 L 7.570312 0 L 7.570312 -8.503906 C 7.570312 -10.230469 8.476562 -11.25 9.964844 -11.25 C 11.398438 -11.25 12.273438 -10.230469 12.273438 -8.5625 L 12.273438 0 L 17.796875 0 L 17.796875 -8.503906 C 17.796875 -10.230469 18.703125 -11.25 20.195312 -11.25 C 21.625 -11.25 22.503906 -10.230469 22.503906 -8.5625 L 22.503906 0 L 28.113281 0 L 28.113281 -9.117188 C 28.113281 -13.296875 25.570312 -15.898438 21.625 -15.898438 C 19.289062 -15.898438 17.390625 -15.023438 16.191406 -13.503906 C 15.082031 -15.050781 13.328125 -15.898438 11.222656 -15.898438 C 9.292969 -15.898438 7.65625 -15.195312 6.546875 -13.941406 L 5.992188 -15.460938 L 1.957031 -15.460938 Z M 1.957031 0 "/></g></g></g><g fill="#000000" fill-opacity="1"><g transform="translate(32.798227, 23.764481)"><g><path d="M 9.90625 0.4375 C 15.253906 0.4375 18.878906 -2.863281 18.878906 -7.746094 C 18.878906 -12.597656 15.253906 -15.898438 9.90625 -15.898438 C 4.53125 -15.898438 0.90625 -12.597656 0.90625 -7.746094 C 0.90625 -2.863281 4.53125 0.4375 9.90625 0.4375 Z M 6.398438 -7.746094 C 6.398438 -9.789062 7.863281 -11.25 9.90625 -11.25 C 11.953125 -11.25 13.386719 -9.789062 13.386719 -7.746094 C 13.386719 -5.667969 11.953125 -4.207031 9.90625 -4.207031 C 7.863281 -4.207031 6.398438 -5.667969 6.398438 -7.746094 Z M 6.398438 -7.746094 "/></g></g></g><g fill="#000000" fill-opacity="1"><g transform="translate(50.099616, 23.764481)"><g><path d="M 1.957031 0 L 7.570312 0 L 7.570312 -8.503906 C 7.570312 -10.230469 8.476562 -11.25 9.964844 -11.25 C 11.398438 -11.25 12.273438 -10.230469 12.273438 -8.5625 L 12.273438 0 L 17.796875 0 L 17.796875 -8.503906 C 17.796875 -10.230469 18.703125 -11.25 20.195312 -11.25 C 21.625 -11.25 22.503906 -10.230469 22.503906 -8.5625 L 22.503906 0 L 28.113281 0 L 28.113281 -9.117188 C 28.113281 -13.296875 25.570312 -15.898438 21.625 -15.898438 C 19.289062 -15.898438 17.390625 -15.023438 16.191406 -13.503906 C 15.082031 -15.050781 13.328125 -15.898438 11.222656 -15.898438 C 9.292969 -15.898438 7.65625 -15.195312 6.546875 -13.941406 L 5.992188 -15.460938 L 1.957031 -15.460938 Z M 1.957031 0 "/></g></g></g><g fill="#000000" fill-opacity="1"><g transform="translate(77.425289, 23.764481)"><g><path d="M 9.644531 0.4375 C 13.648438 0.4375 16.71875 -1.550781 18.089844 -4.996094 L 12.65625 -4.996094 C 12.039062 -4.265625 10.960938 -3.800781 9.761719 -3.800781 C 8.183594 -3.800781 6.867188 -4.648438 6.457031 -6.34375 L 18.382812 -6.34375 C 18.675781 -12.097656 15.195312 -15.898438 9.671875 -15.898438 C 4.5 -15.898438 0.90625 -12.566406 0.90625 -7.746094 C 0.90625 -2.894531 4.472656 0.4375 9.644531 0.4375 Z M 6.488281 -9.382812 C 6.957031 -10.871094 8.183594 -11.691406 9.730469 -11.691406 C 11.425781 -11.691406 12.566406 -10.8125 13.035156 -9.382812 Z M 6.488281 -9.382812 "/></g></g></g><g fill="#000000" fill-opacity="1"><g transform="translate(94.200628, 23.764481)"><g><path d="M 1.957031 0 L 7.570312 0 L 7.570312 -8.328125 C 7.570312 -10.199219 8.535156 -11.25 10.082031 -11.25 C 11.574219 -11.25 12.449219 -10.289062 12.449219 -8.476562 L 12.449219 0 L 18.0625 0 L 18.0625 -9.058594 C 18.0625 -13.238281 15.578125 -15.898438 11.601562 -15.898438 C 9.527344 -15.898438 7.714844 -15.167969 6.574219 -13.882812 L 5.992188 -15.460938 L 1.957031 -15.460938 Z M 1.957031 0 "/></g></g></g><g fill="#000000" fill-opacity="1"><g transform="translate(111.443569, 23.764481)"><g><path d="M 9.820312 0 L 12.945312 0 L 12.945312 -4.734375 L 11.339844 -4.734375 C 9.703125 -4.734375 8.941406 -5.464844 8.941406 -7.074219 L 8.941406 -11.046875 L 12.742188 -11.046875 L 12.742188 -15.460938 L 8.941406 -15.460938 L 8.941406 -19.523438 L 4.589844 -19.523438 L 4.296875 -17.507812 C 4.0625 -15.898438 3.625 -15.460938 1.871094 -15.460938 L 0.46875 -15.460938 L 0.46875 -11.046875 L 3.332031 -11.046875 L 3.332031 -5.992188 C 3.332031 -2.074219 5.582031 0 9.820312 0 Z M 9.820312 0 "/></g></g></g><g fill="#000000" fill-opacity="1"><g transform="translate(123.046023, 23.764481)"><g><path d="M 8.066406 0.4375 C 12.449219 0.4375 15.050781 -1.402344 15.050781 -4.5 C 15.050781 -7.132812 13.238281 -8.738281 9.46875 -9.46875 C 7.132812 -9.90625 6.457031 -10.289062 6.457031 -11.046875 C 6.457031 -11.71875 7.015625 -12.097656 7.832031 -12.097656 C 8.855469 -12.097656 9.441406 -11.574219 9.5 -10.636719 L 14.816406 -10.636719 C 14.613281 -14.058594 12.214844 -15.898438 7.890625 -15.898438 C 3.476562 -15.898438 1.082031 -14.175781 1.082031 -11.046875 C 1.082031 -8.417969 2.777344 -6.898438 6.632812 -6.167969 C 8.679688 -5.757812 9.527344 -5.261719 9.527344 -4.53125 C 9.527344 -3.859375 9 -3.449219 8.125 -3.449219 C 7.101562 -3.449219 6.429688 -4.089844 6.429688 -5.027344 L 0.933594 -5.027344 C 0.933594 -1.722656 3.742188 0.4375 8.066406 0.4375 Z M 8.066406 0.4375 "/></g></g></g><g fill="#000000" fill-opacity="1"><g transform="translate(136.606572, 23.764481)"><g><path d="M 3.976562 0.378906 C 5.785156 0.378906 7.074219 -0.90625 7.074219 -2.660156 C 7.074219 -4.414062 5.785156 -5.699219 3.976562 -5.699219 C 2.132812 -5.699219 0.847656 -4.414062 0.847656 -2.660156 C 0.847656 -0.90625 2.132812 0.378906 3.976562 0.378906 Z M 3.976562 0.378906 "/></g></g></g></svg>