<svg xmlns="http://www.w3.org/2000/svg" xmlns:xlink="http://www.w3.org/1999/xlink" width="250" zoomAndPan="magnify" viewBox="0 0 187.5 56.249996" height="75" preserveAspectRatio="xMidYMid meet" version="1.0"><defs><g/></defs><g fill="#000000" fill-opacity="1"><g transform="translate(5.352131, 33.013722)"><g><path d="M 2.488281 0 L 9.625 0 L 9.625 -10.8125 C 9.625 -13.003906 10.777344 -14.304688 12.671875 -14.304688 C 14.492188 -14.304688 15.605469 -13.003906 15.605469 -10.886719 L 15.605469 0 L 22.628906 0 L 22.628906 -10.8125 C 22.628906 -13.003906 23.78125 -14.304688 25.675781 -14.304688 C 27.496094 -14.304688 28.609375 -13.003906 28.609375 -10.886719 L 28.609375 0 L 35.746094 0 L 35.746094 -11.59375 C 35.746094 -16.90625 32.511719 -20.214844 27.496094 -20.214844 C 24.523438 -20.214844 22.109375 -19.097656 20.585938 -17.167969 C 19.171875 -19.136719 16.945312 -20.214844 14.269531 -20.214844 C 11.816406 -20.214844 9.734375 -19.320312 8.324219 -17.722656 L 7.617188 -19.65625 L 2.488281 -19.65625 Z M 2.488281 0 "/></g></g></g><g fill="#000000" fill-opacity="1"><g transform="translate(40.094258, 33.013722)"><g><path d="M 12.597656 0.558594 C 19.394531 0.558594 24.003906 -3.640625 24.003906 -9.847656 C 24.003906 -16.015625 19.394531 -20.214844 12.597656 -20.214844 C 5.757812 -20.214844 1.152344 -16.015625 1.152344 -9.847656 C 1.152344 -3.640625 5.757812 0.558594 12.597656 0.558594 Z M 8.136719 -9.847656 C 8.136719 -12.449219 9.996094 -14.304688 12.597656 -14.304688 C 15.199219 -14.304688 17.019531 -12.449219 17.019531 -9.847656 C 17.019531 -7.207031 15.199219 -5.351562 12.597656 -5.351562 C 9.996094 -5.351562 8.136719 -7.207031 8.136719 -9.847656 Z M 8.136719 -9.847656 "/></g></g></g><g fill="#000000" fill-opacity="1"><g transform="translate(62.091413, 33.013722)"><g><path d="M 2.488281 0 L 9.625 0 L 9.625 -10.8125 C 9.625 -13.003906 10.777344 -14.304688 12.671875 -14.304688 C 14.492188 -14.304688 15.605469 -13.003906 15.605469 -10.886719 L 15.605469 0 L 22.628906 0 L 22.628906 -10.8125 C 22.628906 -13.003906 23.78125 -14.304688 25.675781 -14.304688 C 27.496094 -14.304688 28.609375 -13.003906 28.609375 -10.886719 L 28.609375 0 L 35.746094 0 L 35.746094 -11.59375 C 35.746094 -16.90625 32.511719 -20.214844 27.496094 -20.214844 C 24.523438 -20.214844 22.109375 -19.097656 20.585938 -17.167969 C 19.171875 -19.136719 16.945312 -20.214844 14.269531 -20.214844 C 11.816406 -20.214844 9.734375 -19.320312 8.324219 -17.722656 L 7.617188 -19.65625 L 2.488281 -19.65625 Z M 2.488281 0 "/></g></g></g><g fill="#000000" fill-opacity="1"><g transform="translate(96.83354, 33.013722)"><g><path d="M 12.261719 0.558594 C 17.351562 0.558594 21.253906 -1.96875 23 -6.355469 L 16.089844 -6.355469 C 15.308594 -5.425781 13.933594 -4.832031 12.410156 -4.832031 C 10.402344 -4.832031 8.730469 -5.90625 8.210938 -8.0625 L 23.371094 -8.0625 C 23.742188 -15.382812 19.320312 -20.214844 12.300781 -20.214844 C 5.722656 -20.214844 1.152344 -15.976562 1.152344 -9.847656 C 1.152344 -3.679688 5.683594 0.558594 12.261719 0.558594 Z M 8.25 -11.925781 C 8.84375 -13.824219 10.402344 -14.863281 12.375 -14.863281 C 14.527344 -14.863281 15.976562 -13.75 16.570312 -11.925781 Z M 8.25 -11.925781 "/></g></g></g><g fill="#000000" fill-opacity="1"><g transform="translate(118.161869, 33.013722)"><g><path d="M 2.488281 0 L 9.625 0 L 9.625 -10.589844 C 9.625 -12.96875 10.851562 -14.304688 12.820312 -14.304688 C 14.714844 -14.304688 15.828125 -13.078125 15.828125 -10.777344 L 15.828125 0 L 22.964844 0 L 22.964844 -11.519531 C 22.964844 -16.832031 19.804688 -20.214844 14.75 -20.214844 C 12.113281 -20.214844 9.808594 -19.285156 8.359375 -17.648438 L 7.617188 -19.65625 L 2.488281 -19.65625 Z M 2.488281 0 "/></g></g></g><g fill="#000000" fill-opacity="1"><g transform="translate(140.084711, 33.013722)"><g><path d="M 12.484375 0 L 16.460938 0 L 16.460938 -6.019531 L 14.417969 -6.019531 C 12.335938 -6.019531 11.371094 -6.949219 11.371094 -8.992188 L 11.371094 -14.046875 L 16.199219 -14.046875 L 16.199219 -19.65625 L 11.371094 -19.65625 L 11.371094 -24.820312 L 5.832031 -24.820312 L 5.460938 -22.257812 C 5.164062 -20.214844 4.609375 -19.65625 2.378906 -19.65625 L 0.59375 -19.65625 L 0.59375 -14.046875 L 4.234375 -14.046875 L 4.234375 -7.617188 C 4.234375 -2.636719 7.097656 0 12.484375 0 Z M 12.484375 0 "/></g></g></g><g fill="#000000" fill-opacity="1"><g transform="translate(154.836185, 33.013722)"><g><path d="M 10.253906 0.558594 C 15.828125 0.558594 19.136719 -1.785156 19.136719 -5.722656 C 19.136719 -9.066406 16.832031 -11.109375 12.039062 -12.039062 C 9.066406 -12.597656 8.210938 -13.078125 8.210938 -14.046875 C 8.210938 -14.898438 8.917969 -15.382812 9.957031 -15.382812 C 11.257812 -15.382812 12 -14.714844 12.074219 -13.523438 L 18.839844 -13.523438 C 18.578125 -17.871094 15.53125 -20.214844 10.03125 -20.214844 C 4.421875 -20.214844 1.375 -18.019531 1.375 -14.046875 C 1.375 -10.703125 3.53125 -8.769531 8.433594 -7.839844 C 11.035156 -7.320312 12.113281 -6.6875 12.113281 -5.757812 C 12.113281 -4.90625 11.445312 -4.382812 10.328125 -4.382812 C 9.027344 -4.382812 8.175781 -5.203125 8.175781 -6.390625 L 1.1875 -6.390625 C 1.1875 -2.191406 4.757812 0.558594 10.253906 0.558594 Z M 10.253906 0.558594 "/></g></g></g><g fill="#000000" fill-opacity="1"><g transform="translate(172.077198, 33.013722)"><g><path d="M 5.054688 0.484375 C 7.355469 0.484375 8.992188 -1.152344 8.992188 -3.382812 C 8.992188 -5.609375 7.355469 -7.246094 5.054688 -7.246094 C 2.710938 -7.246094 1.078125 -5.609375 1.078125 -3.382812 C 1.078125 -1.152344 2.710938 0.484375 5.054688 0.484375 Z M 5.054688 0.484375 "/></g></g></g><g fill="#000000" fill-opacity="1"><g transform="translate(63.181178, 45.546531)"><g><path d="M 7.5625 -1.34375 C 7.195312 -0.863281 6.726562 -0.488281 6.15625 -0.21875 C 5.59375 0.0390625 4.972656 0.171875 4.296875 0.171875 C 3.109375 0.171875 2.148438 -0.195312 1.421875 -0.9375 C 0.691406 -1.6875 0.328125 -2.671875 0.328125 -3.890625 C 0.328125 -5.273438 0.796875 -6.359375 1.734375 -7.140625 C 2.492188 -7.765625 3.359375 -8.078125 4.328125 -8.078125 C 4.921875 -8.078125 5.503906 -7.984375 6.078125 -7.796875 C 6.273438 -7.722656 6.4375 -7.6875 6.5625 -7.6875 C 6.8125 -7.6875 6.972656 -7.816406 7.046875 -8.078125 L 7.296875 -8.078125 L 7.40625 -5.375 L 7.140625 -5.375 C 7.023438 -5.769531 6.910156 -6.070312 6.796875 -6.28125 C 6.691406 -6.488281 6.539062 -6.6875 6.34375 -6.875 C 5.863281 -7.363281 5.269531 -7.609375 4.5625 -7.609375 C 3.695312 -7.609375 3.003906 -7.285156 2.484375 -6.640625 C 1.972656 -5.992188 1.71875 -5.128906 1.71875 -4.046875 C 1.71875 -2.617188 2.085938 -1.597656 2.828125 -0.984375 C 3.328125 -0.566406 3.945312 -0.359375 4.6875 -0.359375 C 5.625 -0.359375 6.507812 -0.757812 7.34375 -1.5625 Z M 7.5625 -1.34375 "/></g></g></g><g fill="#000000" fill-opacity="1"><g transform="translate(70.916053, 45.546531)"><g><path d="M 5.28125 -0.484375 C 5.070312 -0.242188 4.890625 -0.0820312 4.734375 0 C 4.578125 0.0820312 4.398438 0.125 4.203125 0.125 C 3.960938 0.125 3.78125 0.0546875 3.65625 -0.078125 C 3.539062 -0.210938 3.46875 -0.4375 3.4375 -0.75 C 2.757812 -0.164062 2.179688 0.125 1.703125 0.125 C 1.328125 0.125 1.019531 0.00390625 0.78125 -0.234375 C 0.550781 -0.472656 0.4375 -0.78125 0.4375 -1.15625 C 0.4375 -1.59375 0.582031 -1.941406 0.875 -2.203125 C 1.125 -2.421875 1.378906 -2.59375 1.640625 -2.71875 C 1.898438 -2.851562 2.5 -3.109375 3.4375 -3.484375 L 3.4375 -4.21875 C 3.4375 -4.882812 3.128906 -5.21875 2.515625 -5.21875 C 2.273438 -5.21875 2.070312 -5.15625 1.90625 -5.03125 C 1.738281 -4.914062 1.65625 -4.78125 1.65625 -4.625 C 1.65625 -4.539062 1.671875 -4.445312 1.703125 -4.34375 C 1.710938 -4.226562 1.71875 -4.160156 1.71875 -4.140625 C 1.71875 -4.003906 1.664062 -3.882812 1.5625 -3.78125 C 1.457031 -3.6875 1.332031 -3.640625 1.1875 -3.640625 C 1.039062 -3.640625 0.914062 -3.691406 0.8125 -3.796875 C 0.71875 -3.898438 0.671875 -4.019531 0.671875 -4.15625 C 0.671875 -4.488281 0.832031 -4.789062 1.15625 -5.0625 C 1.519531 -5.351562 2.023438 -5.5 2.671875 -5.5 C 3.421875 -5.5 3.921875 -5.269531 4.171875 -4.8125 C 4.328125 -4.5625 4.40625 -4.148438 4.40625 -3.578125 L 4.40625 -1.25 C 4.40625 -0.988281 4.425781 -0.804688 4.46875 -0.703125 C 4.519531 -0.609375 4.613281 -0.5625 4.75 -0.5625 C 4.925781 -0.5625 5.101562 -0.632812 5.28125 -0.78125 Z M 3.4375 -1.46875 L 3.4375 -3.203125 C 2.71875 -2.941406 2.210938 -2.6875 1.921875 -2.4375 C 1.640625 -2.1875 1.5 -1.890625 1.5 -1.546875 L 1.5 -1.5 C 1.5 -1.238281 1.570312 -1.019531 1.71875 -0.84375 C 1.863281 -0.664062 2.039062 -0.578125 2.25 -0.578125 C 2.53125 -0.578125 2.820312 -0.664062 3.125 -0.84375 C 3.25 -0.914062 3.332031 -0.988281 3.375 -1.0625 C 3.414062 -1.144531 3.4375 -1.28125 3.4375 -1.46875 Z M 3.4375 -1.46875 "/></g></g></g><g fill="#000000" fill-opacity="1"><g transform="translate(75.984952, 45.546531)"><g><path d="M 5.625 -2.953125 C 5.625 -2.085938 5.378906 -1.359375 4.890625 -0.765625 C 4.410156 -0.171875 3.816406 0.125 3.109375 0.125 C 2.847656 0.125 2.632812 0.0859375 2.46875 0.015625 C 2.300781 -0.0546875 2.113281 -0.191406 1.90625 -0.390625 L 1.90625 1.484375 C 1.90625 1.859375 1.96875 2.097656 2.09375 2.203125 C 2.21875 2.304688 2.503906 2.363281 2.953125 2.375 L 2.953125 2.59375 L 0.0625 2.59375 L 0.0625 2.390625 C 0.40625 2.359375 0.628906 2.289062 0.734375 2.1875 C 0.835938 2.082031 0.890625 1.875 0.890625 1.5625 L 0.890625 -4.03125 C 0.890625 -4.3125 0.859375 -4.492188 0.796875 -4.578125 C 0.734375 -4.660156 0.601562 -4.703125 0.40625 -4.703125 C 0.28125 -4.703125 0.179688 -4.703125 0.109375 -4.703125 L 0.109375 -4.890625 C 0.609375 -5.035156 1.179688 -5.238281 1.828125 -5.5 L 1.90625 -5.46875 L 1.90625 -4.546875 C 2.414062 -5.179688 2.988281 -5.5 3.625 -5.5 C 4.207031 -5.5 4.6875 -5.257812 5.0625 -4.78125 C 5.4375 -4.300781 5.625 -3.691406 5.625 -2.953125 Z M 4.59375 -2.484375 C 4.59375 -3.179688 4.457031 -3.738281 4.1875 -4.15625 C 3.925781 -4.570312 3.570312 -4.78125 3.125 -4.78125 C 2.84375 -4.78125 2.566406 -4.691406 2.296875 -4.515625 C 2.035156 -4.335938 1.90625 -4.164062 1.90625 -4 L 1.90625 -1.046875 C 1.90625 -0.867188 2.039062 -0.691406 2.3125 -0.515625 C 2.582031 -0.347656 2.859375 -0.265625 3.140625 -0.265625 C 3.578125 -0.265625 3.925781 -0.46875 4.1875 -0.875 C 4.457031 -1.289062 4.59375 -1.828125 4.59375 -2.484375 Z M 4.59375 -2.484375 "/></g></g></g><g fill="#000000" fill-opacity="1"><g transform="translate(81.723333, 45.546531)"><g><path d="M 3.328125 -0.78125 C 2.953125 -0.175781 2.472656 0.125 1.890625 0.125 C 1.191406 0.125 0.84375 -0.382812 0.84375 -1.40625 L 0.84375 -5 L 0.203125 -5 C 0.171875 -5.019531 0.15625 -5.046875 0.15625 -5.078125 C 0.15625 -5.140625 0.222656 -5.21875 0.359375 -5.3125 C 0.679688 -5.5 1.066406 -5.925781 1.515625 -6.59375 C 1.628906 -6.726562 1.707031 -6.835938 1.75 -6.921875 C 1.8125 -6.921875 1.84375 -6.867188 1.84375 -6.765625 L 1.84375 -5.375 L 3.046875 -5.375 L 3.046875 -5 L 1.84375 -5 L 1.84375 -1.578125 C 1.84375 -1.191406 1.890625 -0.914062 1.984375 -0.75 C 2.078125 -0.582031 2.238281 -0.5 2.46875 -0.5 C 2.707031 -0.5 2.941406 -0.640625 3.171875 -0.921875 Z M 3.328125 -0.78125 "/></g></g></g><g fill="#000000" fill-opacity="1"><g transform="translate(84.807697, 45.546531)"><g><path d="M 5.71875 -0.4375 C 5.101562 -0.257812 4.5625 -0.078125 4.09375 0.109375 L 4.046875 0.078125 L 4.046875 -0.90625 L 3.53125 -0.390625 C 3.1875 -0.046875 2.773438 0.125 2.296875 0.125 C 1.859375 0.125 1.503906 -0.015625 1.234375 -0.296875 C 0.972656 -0.585938 0.84375 -0.96875 0.84375 -1.4375 L 0.84375 -4.453125 C 0.84375 -4.722656 0.789062 -4.910156 0.6875 -5.015625 C 0.582031 -5.128906 0.390625 -5.195312 0.109375 -5.21875 L 0.109375 -5.375 L 1.859375 -5.375 L 1.859375 -1.484375 C 1.859375 -1.234375 1.941406 -1.019531 2.109375 -0.84375 C 2.273438 -0.664062 2.472656 -0.578125 2.703125 -0.578125 C 3.085938 -0.578125 3.445312 -0.71875 3.78125 -1 C 3.914062 -1.101562 3.984375 -1.304688 3.984375 -1.609375 L 3.984375 -4.421875 C 3.984375 -4.710938 3.925781 -4.90625 3.8125 -5 C 3.707031 -5.101562 3.46875 -5.160156 3.09375 -5.171875 L 3.09375 -5.375 L 4.984375 -5.375 L 4.984375 -1.28125 C 4.984375 -1 5.03125 -0.8125 5.125 -0.71875 C 5.21875 -0.632812 5.398438 -0.59375 5.671875 -0.59375 L 5.71875 -0.59375 Z M 5.71875 -0.4375 "/></g></g></g><g fill="#000000" fill-opacity="1"><g transform="translate(90.54608, 45.546531)"><g><path d="M 4 -4.859375 C 4 -4.691406 3.957031 -4.5625 3.875 -4.46875 C 3.789062 -4.375 3.675781 -4.328125 3.53125 -4.328125 C 3.394531 -4.328125 3.238281 -4.40625 3.0625 -4.5625 C 2.9375 -4.6875 2.832031 -4.75 2.75 -4.75 C 2.59375 -4.75 2.410156 -4.628906 2.203125 -4.390625 C 2.003906 -4.160156 1.90625 -3.953125 1.90625 -3.765625 L 1.90625 -1.078125 C 1.90625 -0.734375 1.972656 -0.5 2.109375 -0.375 C 2.242188 -0.257812 2.515625 -0.191406 2.921875 -0.171875 L 2.921875 0 L 0.0625 0 L 0.0625 -0.171875 C 0.445312 -0.242188 0.679688 -0.320312 0.765625 -0.40625 C 0.859375 -0.5 0.90625 -0.695312 0.90625 -1 L 0.90625 -4 C 0.90625 -4.257812 0.875 -4.441406 0.8125 -4.546875 C 0.757812 -4.648438 0.65625 -4.703125 0.5 -4.703125 C 0.375 -4.703125 0.234375 -4.6875 0.078125 -4.65625 L 0.078125 -4.859375 C 0.722656 -5.054688 1.316406 -5.269531 1.859375 -5.5 L 1.90625 -5.46875 L 1.90625 -4.375 C 2.207031 -4.800781 2.457031 -5.09375 2.65625 -5.25 C 2.863281 -5.414062 3.09375 -5.5 3.34375 -5.5 C 3.550781 -5.5 3.710938 -5.441406 3.828125 -5.328125 C 3.941406 -5.210938 4 -5.054688 4 -4.859375 Z M 4 -4.859375 "/></g></g></g><g fill="#000000" fill-opacity="1"><g transform="translate(94.287972, 45.546531)"><g><path d="M 5.0625 -1.875 C 4.550781 -0.539062 3.707031 0.125 2.53125 0.125 C 1.84375 0.125 1.296875 -0.113281 0.890625 -0.59375 C 0.492188 -1.082031 0.296875 -1.738281 0.296875 -2.5625 C 0.296875 -3.425781 0.523438 -4.128906 0.984375 -4.671875 C 1.453125 -5.222656 2.054688 -5.5 2.796875 -5.5 C 3.429688 -5.5 3.941406 -5.269531 4.328125 -4.8125 C 4.585938 -4.476562 4.757812 -3.976562 4.84375 -3.3125 L 1.15625 -3.3125 C 1.175781 -2.632812 1.296875 -2.082031 1.515625 -1.65625 C 1.859375 -1.019531 2.363281 -0.703125 3.03125 -0.703125 C 3.40625 -0.703125 3.734375 -0.796875 4.015625 -0.984375 C 4.304688 -1.179688 4.59375 -1.503906 4.875 -1.953125 Z M 3.625 -3.6875 C 3.539062 -4.207031 3.414062 -4.566406 3.25 -4.765625 C 3.082031 -4.960938 2.816406 -5.0625 2.453125 -5.0625 C 1.734375 -5.0625 1.3125 -4.601562 1.1875 -3.6875 Z M 3.625 -3.6875 "/></g></g></g><g fill="#000000" fill-opacity="1"><g transform="translate(99.356872, 45.546531)"><g/></g></g><g fill="#000000" fill-opacity="1"><g transform="translate(102.106496, 45.546531)"><g><path d="M 3.328125 -0.78125 C 2.953125 -0.175781 2.472656 0.125 1.890625 0.125 C 1.191406 0.125 0.84375 -0.382812 0.84375 -1.40625 L 0.84375 -5 L 0.203125 -5 C 0.171875 -5.019531 0.15625 -5.046875 0.15625 -5.078125 C 0.15625 -5.140625 0.222656 -5.21875 0.359375 -5.3125 C 0.679688 -5.5 1.066406 -5.925781 1.515625 -6.59375 C 1.628906 -6.726562 1.707031 -6.835938 1.75 -6.921875 C 1.8125 -6.921875 1.84375 -6.867188 1.84375 -6.765625 L 1.84375 -5.375 L 3.046875 -5.375 L 3.046875 -5 L 1.84375 -5 L 1.84375 -1.578125 C 1.84375 -1.191406 1.890625 -0.914062 1.984375 -0.75 C 2.078125 -0.582031 2.238281 -0.5 2.46875 -0.5 C 2.707031 -0.5 2.941406 -0.640625 3.171875 -0.921875 Z M 3.328125 -0.78125 "/></g></g></g><g fill="#000000" fill-opacity="1"><g transform="translate(105.190862, 45.546531)"><g><path d="M 5.828125 0 L 3.28125 0 L 3.28125 -0.171875 C 3.625 -0.210938 3.84375 -0.296875 3.9375 -0.421875 C 4.039062 -0.546875 4.09375 -0.8125 4.09375 -1.21875 L 4.09375 -3.578125 C 4.09375 -4.429688 3.796875 -4.859375 3.203125 -4.859375 C 2.972656 -4.859375 2.753906 -4.796875 2.546875 -4.671875 C 2.347656 -4.554688 2.125 -4.363281 1.875 -4.09375 L 1.875 -1.21875 C 1.875 -0.800781 1.921875 -0.53125 2.015625 -0.40625 C 2.109375 -0.289062 2.332031 -0.210938 2.6875 -0.171875 L 2.6875 0 L 0.109375 0 L 0.109375 -0.171875 C 0.453125 -0.222656 0.664062 -0.300781 0.75 -0.40625 C 0.832031 -0.519531 0.875 -0.789062 0.875 -1.21875 L 0.875 -6.84375 C 0.875 -7.101562 0.832031 -7.269531 0.75 -7.34375 C 0.675781 -7.414062 0.515625 -7.453125 0.265625 -7.453125 C 0.203125 -7.453125 0.15625 -7.453125 0.125 -7.453125 L 0.125 -7.640625 L 0.4375 -7.734375 C 0.976562 -7.878906 1.4375 -8.019531 1.8125 -8.15625 L 1.875 -8.125 L 1.875 -4.5 C 2.15625 -4.851562 2.429688 -5.109375 2.703125 -5.265625 C 2.972656 -5.421875 3.285156 -5.5 3.640625 -5.5 C 4.617188 -5.5 5.109375 -4.863281 5.109375 -3.59375 L 5.109375 -1.21875 C 5.109375 -0.800781 5.144531 -0.539062 5.21875 -0.4375 C 5.289062 -0.332031 5.492188 -0.242188 5.828125 -0.171875 Z M 5.828125 0 "/></g></g></g><g fill="#000000" fill-opacity="1"><g transform="translate(110.929245, 45.546531)"><g><path d="M 5.0625 -1.875 C 4.550781 -0.539062 3.707031 0.125 2.53125 0.125 C 1.84375 0.125 1.296875 -0.113281 0.890625 -0.59375 C 0.492188 -1.082031 0.296875 -1.738281 0.296875 -2.5625 C 0.296875 -3.425781 0.523438 -4.128906 0.984375 -4.671875 C 1.453125 -5.222656 2.054688 -5.5 2.796875 -5.5 C 3.429688 -5.5 3.941406 -5.269531 4.328125 -4.8125 C 4.585938 -4.476562 4.757812 -3.976562 4.84375 -3.3125 L 1.15625 -3.3125 C 1.175781 -2.632812 1.296875 -2.082031 1.515625 -1.65625 C 1.859375 -1.019531 2.363281 -0.703125 3.03125 -0.703125 C 3.40625 -0.703125 3.734375 -0.796875 4.015625 -0.984375 C 4.304688 -1.179688 4.59375 -1.503906 4.875 -1.953125 Z M 3.625 -3.6875 C 3.539062 -4.207031 3.414062 -4.566406 3.25 -4.765625 C 3.082031 -4.960938 2.816406 -5.0625 2.453125 -5.0625 C 1.734375 -5.0625 1.3125 -4.601562 1.1875 -3.6875 Z M 3.625 -3.6875 "/></g></g></g><g fill="#000000" fill-opacity="1"><g transform="translate(115.998145, 45.546531)"><g><path d="M 9.265625 0 L 6.640625 0 L 6.640625 -0.171875 C 6.992188 -0.210938 7.210938 -0.28125 7.296875 -0.375 C 7.390625 -0.476562 7.4375 -0.703125 7.4375 -1.046875 L 7.4375 -3.5625 C 7.4375 -4.050781 7.367188 -4.390625 7.234375 -4.578125 C 7.109375 -4.773438 6.875 -4.875 6.53125 -4.875 C 6.007812 -4.875 5.578125 -4.628906 5.234375 -4.140625 L 5.234375 -1.140625 C 5.234375 -0.765625 5.289062 -0.507812 5.40625 -0.375 C 5.519531 -0.25 5.75 -0.179688 6.09375 -0.171875 L 6.09375 0 L 3.421875 0 L 3.421875 -0.171875 C 3.765625 -0.203125 3.984375 -0.269531 4.078125 -0.375 C 4.179688 -0.476562 4.234375 -0.695312 4.234375 -1.03125 L 4.234375 -3.625 C 4.234375 -4.457031 3.96875 -4.875 3.4375 -4.875 C 3.226562 -4.875 3.007812 -4.828125 2.78125 -4.734375 C 2.550781 -4.648438 2.363281 -4.539062 2.21875 -4.40625 L 2.03125 -4.171875 L 2.03125 -0.796875 C 2.03125 -0.566406 2.082031 -0.410156 2.1875 -0.328125 C 2.300781 -0.242188 2.519531 -0.191406 2.84375 -0.171875 L 2.84375 0 L 0.1875 0 L 0.1875 -0.171875 C 0.519531 -0.179688 0.742188 -0.242188 0.859375 -0.359375 C 0.972656 -0.472656 1.03125 -0.691406 1.03125 -1.015625 L 1.03125 -4.046875 C 1.03125 -4.328125 1 -4.523438 0.9375 -4.640625 C 0.875 -4.753906 0.765625 -4.8125 0.609375 -4.8125 C 0.492188 -4.8125 0.367188 -4.789062 0.234375 -4.75 L 0.234375 -4.953125 C 0.804688 -5.117188 1.363281 -5.300781 1.90625 -5.5 L 1.984375 -5.46875 L 1.984375 -4.578125 C 2.472656 -4.953125 2.835938 -5.195312 3.078125 -5.3125 C 3.316406 -5.4375 3.570312 -5.5 3.84375 -5.5 C 4.46875 -5.5 4.890625 -5.164062 5.109375 -4.5 C 5.722656 -5.164062 6.367188 -5.5 7.046875 -5.5 C 7.972656 -5.5 8.4375 -4.789062 8.4375 -3.375 L 8.4375 -0.90625 C 8.4375 -0.457031 8.609375 -0.222656 8.953125 -0.203125 L 9.265625 -0.171875 Z M 9.265625 0 "/></g></g></g><g fill="#000000" fill-opacity="1"><g transform="translate(125.060027, 45.546531)"><g/></g></g><g fill="#000000" fill-opacity="1"><g transform="translate(127.809649, 45.546531)"><g><path d="M 3.328125 -0.78125 C 2.953125 -0.175781 2.472656 0.125 1.890625 0.125 C 1.191406 0.125 0.84375 -0.382812 0.84375 -1.40625 L 0.84375 -5 L 0.203125 -5 C 0.171875 -5.019531 0.15625 -5.046875 0.15625 -5.078125 C 0.15625 -5.140625 0.222656 -5.21875 0.359375 -5.3125 C 0.679688 -5.5 1.066406 -5.925781 1.515625 -6.59375 C 1.628906 -6.726562 1.707031 -6.835938 1.75 -6.921875 C 1.8125 -6.921875 1.84375 -6.867188 1.84375 -6.765625 L 1.84375 -5.375 L 3.046875 -5.375 L 3.046875 -5 L 1.84375 -5 L 1.84375 -1.578125 C 1.84375 -1.191406 1.890625 -0.914062 1.984375 -0.75 C 2.078125 -0.582031 2.238281 -0.5 2.46875 -0.5 C 2.707031 -0.5 2.941406 -0.640625 3.171875 -0.921875 Z M 3.328125 -0.78125 "/></g></g></g><g fill="#000000" fill-opacity="1"><g transform="translate(130.894015, 45.546531)"><g><path d="M 5.625 -2.796875 C 5.625 -1.960938 5.367188 -1.265625 4.859375 -0.703125 C 4.347656 -0.148438 3.71875 0.125 2.96875 0.125 C 2.21875 0.125 1.59375 -0.144531 1.09375 -0.6875 C 0.59375 -1.226562 0.34375 -1.898438 0.34375 -2.703125 C 0.34375 -3.523438 0.585938 -4.195312 1.078125 -4.71875 C 1.566406 -5.238281 2.203125 -5.5 2.984375 -5.5 C 3.753906 -5.5 4.382812 -5.242188 4.875 -4.734375 C 5.375 -4.222656 5.625 -3.578125 5.625 -2.796875 Z M 4.546875 -2.375 C 4.546875 -3.195312 4.382812 -3.863281 4.0625 -4.375 C 3.738281 -4.894531 3.328125 -5.15625 2.828125 -5.15625 C 2.410156 -5.15625 2.070312 -4.984375 1.8125 -4.640625 C 1.550781 -4.304688 1.421875 -3.851562 1.421875 -3.28125 C 1.421875 -2.394531 1.597656 -1.628906 1.953125 -0.984375 C 2.222656 -0.472656 2.609375 -0.21875 3.109375 -0.21875 C 3.554688 -0.21875 3.90625 -0.40625 4.15625 -0.78125 C 4.414062 -1.164062 4.546875 -1.695312 4.546875 -2.375 Z M 4.546875 -2.375 "/></g></g></g><g fill="#000000" fill-opacity="1"><g transform="translate(136.632398, 45.546531)"><g><path d="M 5.625 -4.640625 L 4.625 -4.640625 C 4.78125 -4.296875 4.859375 -3.960938 4.859375 -3.640625 C 4.859375 -3.054688 4.664062 -2.601562 4.28125 -2.28125 C 3.894531 -1.945312 3.460938 -1.78125 2.984375 -1.78125 C 2.910156 -1.78125 2.757812 -1.789062 2.53125 -1.8125 C 2.519531 -1.8125 2.445312 -1.820312 2.3125 -1.84375 C 2.144531 -1.789062 1.984375 -1.679688 1.828125 -1.515625 C 1.671875 -1.347656 1.59375 -1.207031 1.59375 -1.09375 C 1.59375 -0.894531 1.898438 -0.785156 2.515625 -0.765625 L 4.0625 -0.6875 C 4.5 -0.675781 4.847656 -0.550781 5.109375 -0.3125 C 5.378906 -0.0820312 5.515625 0.210938 5.515625 0.578125 C 5.515625 1.023438 5.296875 1.429688 4.859375 1.796875 C 4.179688 2.335938 3.363281 2.609375 2.40625 2.609375 C 1.832031 2.609375 1.34375 2.492188 0.9375 2.265625 C 0.53125 2.035156 0.328125 1.765625 0.328125 1.453125 C 0.328125 1.222656 0.414062 1 0.59375 0.78125 C 0.78125 0.5625 1.082031 0.296875 1.5 -0.015625 C 1.257812 -0.128906 1.09375 -0.226562 1 -0.3125 C 0.914062 -0.40625 0.875 -0.515625 0.875 -0.640625 C 0.875 -0.867188 1.054688 -1.144531 1.421875 -1.46875 L 1.9375 -1.953125 C 1.539062 -2.148438 1.253906 -2.367188 1.078125 -2.609375 C 0.910156 -2.859375 0.828125 -3.171875 0.828125 -3.546875 C 0.828125 -4.085938 1.019531 -4.546875 1.40625 -4.921875 C 1.789062 -5.304688 2.265625 -5.5 2.828125 -5.5 C 3.140625 -5.5 3.457031 -5.4375 3.78125 -5.3125 L 4.046875 -5.21875 C 4.273438 -5.144531 4.492188 -5.109375 4.703125 -5.109375 L 5.625 -5.109375 Z M 5.171875 0.765625 C 5.171875 0.546875 5.054688 0.390625 4.828125 0.296875 C 4.609375 0.210938 4.226562 0.171875 3.6875 0.171875 C 2.882812 0.171875 2.238281 0.125 1.75 0.03125 C 1.507812 0.320312 1.351562 0.53125 1.28125 0.65625 C 1.207031 0.78125 1.171875 0.910156 1.171875 1.046875 C 1.171875 1.316406 1.328125 1.53125 1.640625 1.6875 C 1.960938 1.84375 2.390625 1.921875 2.921875 1.921875 C 3.597656 1.921875 4.140625 1.8125 4.546875 1.59375 C 4.960938 1.382812 5.171875 1.109375 5.171875 0.765625 Z M 3.9375 -3.171875 C 3.9375 -3.660156 3.816406 -4.140625 3.578125 -4.609375 C 3.378906 -4.972656 3.085938 -5.15625 2.703125 -5.15625 C 2.421875 -5.15625 2.203125 -5.054688 2.046875 -4.859375 C 1.890625 -4.660156 1.8125 -4.390625 1.8125 -4.046875 L 1.8125 -4 C 1.8125 -3.425781 1.925781 -2.960938 2.15625 -2.609375 C 2.382812 -2.253906 2.675781 -2.078125 3.03125 -2.078125 C 3.3125 -2.078125 3.53125 -2.175781 3.6875 -2.375 C 3.851562 -2.570312 3.9375 -2.835938 3.9375 -3.171875 Z M 3.9375 -3.171875 "/></g></g></g><g fill="#000000" fill-opacity="1"><g transform="translate(142.37078, 45.546531)"><g><path d="M 5.0625 -1.875 C 4.550781 -0.539062 3.707031 0.125 2.53125 0.125 C 1.84375 0.125 1.296875 -0.113281 0.890625 -0.59375 C 0.492188 -1.082031 0.296875 -1.738281 0.296875 -2.5625 C 0.296875 -3.425781 0.523438 -4.128906 0.984375 -4.671875 C 1.453125 -5.222656 2.054688 -5.5 2.796875 -5.5 C 3.429688 -5.5 3.941406 -5.269531 4.328125 -4.8125 C 4.585938 -4.476562 4.757812 -3.976562 4.84375 -3.3125 L 1.15625 -3.3125 C 1.175781 -2.632812 1.296875 -2.082031 1.515625 -1.65625 C 1.859375 -1.019531 2.363281 -0.703125 3.03125 -0.703125 C 3.40625 -0.703125 3.734375 -0.796875 4.015625 -0.984375 C 4.304688 -1.179688 4.59375 -1.503906 4.875 -1.953125 Z M 3.625 -3.6875 C 3.539062 -4.207031 3.414062 -4.566406 3.25 -4.765625 C 3.082031 -4.960938 2.816406 -5.0625 2.453125 -5.0625 C 1.734375 -5.0625 1.3125 -4.601562 1.1875 -3.6875 Z M 3.625 -3.6875 "/></g></g></g><g fill="#000000" fill-opacity="1"><g transform="translate(147.439681, 45.546531)"><g><path d="M 3.328125 -0.78125 C 2.953125 -0.175781 2.472656 0.125 1.890625 0.125 C 1.191406 0.125 0.84375 -0.382812 0.84375 -1.40625 L 0.84375 -5 L 0.203125 -5 C 0.171875 -5.019531 0.15625 -5.046875 0.15625 -5.078125 C 0.15625 -5.140625 0.222656 -5.21875 0.359375 -5.3125 C 0.679688 -5.5 1.066406 -5.925781 1.515625 -6.59375 C 1.628906 -6.726562 1.707031 -6.835938 1.75 -6.921875 C 1.8125 -6.921875 1.84375 -6.867188 1.84375 -6.765625 L 1.84375 -5.375 L 3.046875 -5.375 L 3.046875 -5 L 1.84375 -5 L 1.84375 -1.578125 C 1.84375 -1.191406 1.890625 -0.914062 1.984375 -0.75 C 2.078125 -0.582031 2.238281 -0.5 2.46875 -0.5 C 2.707031 -0.5 2.941406 -0.640625 3.171875 -0.921875 Z M 3.328125 -0.78125 "/></g></g></g><g fill="#000000" fill-opacity="1"><g transform="translate(150.524046, 45.546531)"><g><path d="M 5.828125 0 L 3.28125 0 L 3.28125 -0.171875 C 3.625 -0.210938 3.84375 -0.296875 3.9375 -0.421875 C 4.039062 -0.546875 4.09375 -0.8125 4.09375 -1.21875 L 4.09375 -3.578125 C 4.09375 -4.429688 3.796875 -4.859375 3.203125 -4.859375 C 2.972656 -4.859375 2.753906 -4.796875 2.546875 -4.671875 C 2.347656 -4.554688 2.125 -4.363281 1.875 -4.09375 L 1.875 -1.21875 C 1.875 -0.800781 1.921875 -0.53125 2.015625 -0.40625 C 2.109375 -0.289062 2.332031 -0.210938 2.6875 -0.171875 L 2.6875 0 L 0.109375 0 L 0.109375 -0.171875 C 0.453125 -0.222656 0.664062 -0.300781 0.75 -0.40625 C 0.832031 -0.519531 0.875 -0.789062 0.875 -1.21875 L 0.875 -6.84375 C 0.875 -7.101562 0.832031 -7.269531 0.75 -7.34375 C 0.675781 -7.414062 0.515625 -7.453125 0.265625 -7.453125 C 0.203125 -7.453125 0.15625 -7.453125 0.125 -7.453125 L 0.125 -7.640625 L 0.4375 -7.734375 C 0.976562 -7.878906 1.4375 -8.019531 1.8125 -8.15625 L 1.875 -8.125 L 1.875 -4.5 C 2.15625 -4.851562 2.429688 -5.109375 2.703125 -5.265625 C 2.972656 -5.421875 3.285156 -5.5 3.640625 -5.5 C 4.617188 -5.5 5.109375 -4.863281 5.109375 -3.59375 L 5.109375 -1.21875 C 5.109375 -0.800781 5.144531 -0.539062 5.21875 -0.4375 C 5.289062 -0.332031 5.492188 -0.242188 5.828125 -0.171875 Z M 5.828125 0 "/></g></g></g><g fill="#000000" fill-opacity="1"><g transform="translate(156.262424, 45.546531)"><g><path d="M 5.0625 -1.875 C 4.550781 -0.539062 3.707031 0.125 2.53125 0.125 C 1.84375 0.125 1.296875 -0.113281 0.890625 -0.59375 C 0.492188 -1.082031 0.296875 -1.738281 0.296875 -2.5625 C 0.296875 -3.425781 0.523438 -4.128906 0.984375 -4.671875 C 1.453125 -5.222656 2.054688 -5.5 2.796875 -5.5 C 3.429688 -5.5 3.941406 -5.269531 4.328125 -4.8125 C 4.585938 -4.476562 4.757812 -3.976562 4.84375 -3.3125 L 1.15625 -3.3125 C 1.175781 -2.632812 1.296875 -2.082031 1.515625 -1.65625 C 1.859375 -1.019531 2.363281 -0.703125 3.03125 -0.703125 C 3.40625 -0.703125 3.734375 -0.796875 4.015625 -0.984375 C 4.304688 -1.179688 4.59375 -1.503906 4.875 -1.953125 Z M 3.625 -3.6875 C 3.539062 -4.207031 3.414062 -4.566406 3.25 -4.765625 C 3.082031 -4.960938 2.816406 -5.0625 2.453125 -5.0625 C 1.734375 -5.0625 1.3125 -4.601562 1.1875 -3.6875 Z M 3.625 -3.6875 "/></g></g></g><g fill="#000000" fill-opacity="1"><g transform="translate(161.331324, 45.546531)"><g><path d="M 4 -4.859375 C 4 -4.691406 3.957031 -4.5625 3.875 -4.46875 C 3.789062 -4.375 3.675781 -4.328125 3.53125 -4.328125 C 3.394531 -4.328125 3.238281 -4.40625 3.0625 -4.5625 C 2.9375 -4.6875 2.832031 -4.75 2.75 -4.75 C 2.59375 -4.75 2.410156 -4.628906 2.203125 -4.390625 C 2.003906 -4.160156 1.90625 -3.953125 1.90625 -3.765625 L 1.90625 -1.078125 C 1.90625 -0.734375 1.972656 -0.5 2.109375 -0.375 C 2.242188 -0.257812 2.515625 -0.191406 2.921875 -0.171875 L 2.921875 0 L 0.0625 0 L 0.0625 -0.171875 C 0.445312 -0.242188 0.679688 -0.320312 0.765625 -0.40625 C 0.859375 -0.5 0.90625 -0.695312 0.90625 -1 L 0.90625 -4 C 0.90625 -4.257812 0.875 -4.441406 0.8125 -4.546875 C 0.757812 -4.648438 0.65625 -4.703125 0.5 -4.703125 C 0.375 -4.703125 0.234375 -4.6875 0.078125 -4.65625 L 0.078125 -4.859375 C 0.722656 -5.054688 1.316406 -5.269531 1.859375 -5.5 L 1.90625 -5.46875 L 1.90625 -4.375 C 2.207031 -4.800781 2.457031 -5.09375 2.65625 -5.25 C 2.863281 -5.414062 3.09375 -5.5 3.34375 -5.5 C 3.550781 -5.5 3.710938 -5.441406 3.828125 -5.328125 C 3.941406 -5.210938 4 -5.054688 4 -4.859375 Z M 4 -4.859375 "/></g></g></g></svg>